<svg width="64" height="64" viewBox="0 0 256 256" fill="none" xmlns="http://www.w3.org/2000/svg">
  <defs>
    <linearGradient id="bg" x1="32" y1="32" x2="224" y2="224" gradientUnits="userSpaceOnUse">
      <stop stop-color="#6FD3FF"/>
      <stop offset="1" stop-color="#B97DFF"/>
    </linearGradient>
    <linearGradient id="ufo" x1="70" y1="96" x2="186" y2="156" gradientUnits="userSpaceOnUse">
      <stop stop-color="#F7FBFF"/>
      <stop offset="1" stop-color="#9AA8C7"/>
    </linearGradient>
  </defs>

  <rect x="16" y="16" width="224" height="224" rx="56" fill="#081321"/>
  <rect x="20" y="20" width="216" height="216" rx="52" fill="url(#bg)" fill-opacity="0.16"/>
  <rect x="20" y="20" width="216" height="216" rx="52" stroke="url(#bg)" stroke-opacity="0.35" stroke-width="2"/>

  <ellipse cx="128" cy="124" rx="62" ry="24" fill="url(#ufo)"/>
  <path d="M94 110C94 91.2223 109.222 76 128 76C146.778 76 162 91.2223 162 110V112H94V110Z" fill="#DDF6FF"/>
  <path d="M100 110C100 94.536 112.536 82 128 82C143.464 82 156 94.536 156 110V112H100V110Z" fill="#8EE3FF"/>

  <circle cx="92" cy="129" r="5" fill="#FFD76A"/>
  <circle cx="128" cy="133" r="5" fill="#FFD76A"/>
  <circle cx="164" cy="129" r="5" fill="#FFD76A"/>

  <path d="M128 150L154 202H102L128 150Z" fill="#6FD3FF" fill-opacity="0.18"/>
</svg>
